<svg xmlns="http://www.w3.org/2000/svg" viewBox="0 0 263.88 285.26"><defs><style>.cls-1{fill:#cd9934;}</style></defs><g id="Layer_2" data-name="Layer 2"><g id="Layer_1-2" data-name="Layer 1"><path d="M241.39,245.11v31.66a8.45,8.45,0,0,1-8.49,8.49H193.49a8.45,8.45,0,0,1-8.49-8.49V245.11a8.45,8.45,0,0,1,8.49-8.49H206.8V220.69H138.35v15.93h13.32a8.45,8.45,0,0,1,8.48,8.49v31.66a8.45,8.45,0,0,1-8.48,8.49H112.15a8.52,8.52,0,0,1-8.49-8.49V245.11a8.52,8.52,0,0,1,8.49-8.49h13.31V220.69H57.12v15.93H70.43a8.45,8.45,0,0,1,8.49,8.49v31.66a8.45,8.45,0,0,1-8.49,8.49H30.91a8.46,8.46,0,0,1-8.49-8.49V245.11a8.46,8.46,0,0,1,8.49-8.49H44.23V214.19a6.44,6.44,0,0,1,6.49-6.39h74.74V189.54h.1c2.1.21,4.3.32,6.4.32a63.43,63.43,0,0,0,6.39-.32V207.8h74.84a6.44,6.44,0,0,1,6.5,6.39v22.43H232.9A8.45,8.45,0,0,1,241.39,245.11Z"/><path class="cls-1" d="M131.94,84a47.92,47.92,0,1,0,47.94,47.94A47.95,47.95,0,0,0,131.94,84Zm-18.11,60.35a1.32,1.32,0,0,1,1.33-1.38h7.22a1.24,1.24,0,0,1,1.26,1,6.15,6.15,0,0,0,6.06,5.13h4.14a6.37,6.37,0,0,0,6.39-5.09,6.13,6.13,0,0,0-6-7.16h-3.78c-8.31,0-15.75-6.06-16.56-14.32A15.92,15.92,0,0,1,127,105.25V99a1.31,1.31,0,0,1,1.31-1.31h7.18a1.31,1.31,0,0,1,1.3,1.31v6.27a15.92,15.92,0,0,1,13.22,14.28,1.32,1.32,0,0,1-1.33,1.39H141.5a1.24,1.24,0,0,1-1.26-1,6.15,6.15,0,0,0-6.05-5.14h-4.14a6.37,6.37,0,0,0-6.4,5.09,6.14,6.14,0,0,0,6,7.17h4.49A15.93,15.93,0,0,1,150,144.55c-.7,7.14-6.33,12.6-13.2,14v6.38a1.3,1.3,0,0,1-1.3,1.3h-7.18a1.31,1.31,0,0,1-1.31-1.3v-6.28A15.92,15.92,0,0,1,113.83,144.35Z"/><path d="M35.91,138.39H64.53a6.45,6.45,0,0,0,0-12.89H35.91a18.56,18.56,0,1,0,0,12.89Z"/><path d="M59.48,68.59,79.71,88.83a6.45,6.45,0,0,0,9.12-9.12L68.59,59.48a18.56,18.56,0,1,0-9.11,9.11Z"/><path d="M125.5,35.91V64.53a6.45,6.45,0,0,0,12.89,0V35.91a18.57,18.57,0,1,0-12.89,0Z"/><path d="M179.61,90.72a6.43,6.43,0,0,0,4.56-1.89l20.24-20.24a18.55,18.55,0,1,0-9.12-9.11L175.05,79.71a6.45,6.45,0,0,0,4.56,11Z"/><path d="M245.32,113.38A18.51,18.51,0,0,0,228,125.5H199.36a6.45,6.45,0,1,0,0,12.89H228a18.53,18.53,0,1,0,17.34-25Z"/></g></g></svg>