<svg xmlns="http://www.w3.org/2000/svg" viewBox="0 0 248.56 258.76"><defs><style>.cls-1{fill:#cd9934;}</style></defs><g id="Layer_2" data-name="Layer 2"><g id="Layer_1-2" data-name="Layer 1"><path d="M243.67,237.56h-9.34V225.81a4.89,4.89,0,0,0-4.89-4.89H19.12a4.89,4.89,0,0,0-4.89,4.89v11.75H4.89A4.89,4.89,0,0,0,0,242.45v11.42a4.89,4.89,0,0,0,4.89,4.89H243.67a4.89,4.89,0,0,0,4.89-4.89V242.45A4.89,4.89,0,0,0,243.67,237.56Z"/><path d="M10.43,84.31h227.7A4.35,4.35,0,0,0,242.48,80V70.53a5.77,5.77,0,0,0-3.15-5.17L128.51,1.15a8.57,8.57,0,0,0-8.57,0L9.23,65.36A5.81,5.81,0,0,0,6.08,70.5V80A4.35,4.35,0,0,0,10.43,84.31ZM124.29,33.57a12.53,12.53,0,1,1-12.54,12.54A12.55,12.55,0,0,1,124.29,33.57Z"/><path d="M70.64,108.21l5-6.83a3.7,3.7,0,0,0-3-5.87H34.7a3.7,3.7,0,0,0-3,5.87l5,6.83a13.83,13.83,0,0,1,2.63,8.11v72.6A13.83,13.83,0,0,1,36.66,197l-5,6.83a3.7,3.7,0,0,0,3,5.86H72.61a3.69,3.69,0,0,0,3-5.86l-5-6.83A13.83,13.83,0,0,1,68,188.92v-72.6A13.83,13.83,0,0,1,70.64,108.21Z"/><path d="M211.9,108.21l5-6.83a3.7,3.7,0,0,0-3-5.87H176a3.7,3.7,0,0,0-3,5.87l5,6.83a13.83,13.83,0,0,1,2.63,8.11v72.6a13.83,13.83,0,0,1-2.63,8.11l-5,6.83a3.7,3.7,0,0,0,3,5.86h37.91a3.69,3.69,0,0,0,3-5.86l-5-6.83a13.83,13.83,0,0,1-2.63-8.11v-72.6A13.83,13.83,0,0,1,211.9,108.21Z"/><path class="cls-1" d="M126.9,175.68h-5.72a7.83,7.83,0,0,1-7.75-6.58,2.34,2.34,0,0,0-2.36-1.88h-10a2.5,2.5,0,0,0-1.83.8,2.26,2.26,0,0,0-.61,1.79A22.54,22.54,0,0,0,116.89,190v8.15a2.44,2.44,0,0,0,2.43,2.43h9.91a2.44,2.44,0,0,0,2.43-2.43v-8.3c10-2.21,17.28-10.09,18.22-19.75a22.41,22.41,0,0,0-5.75-17.43,22.68,22.68,0,0,0-16.75-7.43h-6.2a7.86,7.86,0,0,1-7.73-9.18,8.19,8.19,0,0,1,8.21-6.51h5.72a7.82,7.82,0,0,1,7.74,6.58,2.36,2.36,0,0,0,2.36,1.9h10a2.52,2.52,0,0,0,1.83-.81,2.34,2.34,0,0,0,.61-1.79,22.58,22.58,0,0,0-18.24-20.19v-8.14a2.43,2.43,0,0,0-2.43-2.42h-9.91a2.43,2.43,0,0,0-2.43,2.42v8.14a22.7,22.7,0,0,0-18.21,24.43C99.8,151.07,110.11,160,122.16,160h5.22a7.84,7.84,0,0,1,7.73,9.15A8.19,8.19,0,0,1,126.9,175.68Z"/></g></g></svg>