<svg xmlns="http://www.w3.org/2000/svg" viewBox="0 0 1518.64 1400"><g id="Layer_2" data-name="Layer 2"><g id="Layer_1-2" data-name="Layer 1"><path d="M1400,142.37H1281.36v94.92a94.92,94.92,0,0,1-189.83,0V142.37H427.12v94.92a94.92,94.92,0,0,1-189.83,0V142.37H118.64A118.79,118.79,0,0,0,0,261V1281.36A118.79,118.79,0,0,0,118.64,1400H1400a118.78,118.78,0,0,0,118.64-118.64V261A118.78,118.78,0,0,0,1400,142.37Zm23.73,1139a24,24,0,0,1-23.73,23.72H118.64a24,24,0,0,1-23.72-23.72V427.12H1423.73Z"/><rect x="498.31" y="522.03" width="213.56" height="166.1" rx="23.73"/><rect x="806.78" y="522.03" width="213.56" height="166.1" rx="23.73"/><rect x="1115.25" y="522.03" width="213.56" height="166.1" rx="23.73"/><rect x="498.31" y="783.05" width="213.56" height="166.1" rx="23.73"/><rect x="189.83" y="783.05" width="213.56" height="166.1" rx="23.73"/><rect x="806.78" y="783.05" width="213.56" height="166.1" rx="23.73"/><rect x="1115.25" y="783.05" width="213.56" height="166.1" rx="23.73"/><rect x="498.31" y="1044.07" width="213.56" height="166.1" rx="23.73"/><rect x="189.83" y="1044.07" width="213.56" height="166.1" rx="23.73"/><rect x="806.78" y="1044.07" width="213.56" height="166.1" rx="23.73"/><path d="M332.2,284.75a47.46,47.46,0,0,0,47.46-47.46V47.46a47.46,47.46,0,1,0-94.91,0V237.29A47.46,47.46,0,0,0,332.2,284.75Z"/><path d="M1186.44,284.75a47.46,47.46,0,0,0,47.46-47.46V47.46a47.46,47.46,0,0,0-94.92,0V237.29A47.46,47.46,0,0,0,1186.44,284.75Z"/></g></g></svg>