<svg xmlns="http://www.w3.org/2000/svg" viewBox="0 0 321.74 206.03"><defs><style>.cls-1{fill:#cd9934;}</style></defs><g id="Layer_2" data-name="Layer 2"><g id="Layer_1-2" data-name="Layer 1"><path d="M314.41,119.68a7.3,7.3,0,0,0,4.4-13.12L305.37,96.38H228.16V82.54h86.25a7.35,7.35,0,0,0,4.4-13.19L240.06,9.66a7,7,0,0,0-4.39-1.55H190.45l-2.58-4.45A7.33,7.33,0,0,0,181.53,0H140.2a7.34,7.34,0,0,0-6.34,3.66l-2.58,4.45H86.07A7.43,7.43,0,0,0,81.6,9.66L2.93,69.35A7.18,7.18,0,0,0,.41,77.49a7.24,7.24,0,0,0,6.92,5.05H93.58V96.38H16.37L2.93,106.56a7.3,7.3,0,0,0,4.4,13.12H93.58V133.6H16.21L2.93,143.7a7.34,7.34,0,0,0,4.4,13.19H93.58v13.84H16.37L2.93,180.91a7.34,7.34,0,0,0,4.4,13.19H93.58v4.6A7.33,7.33,0,0,0,100.9,206H220.83a7.33,7.33,0,0,0,7.33-7.33v-4.6h86.25a7.34,7.34,0,0,0,4.4-13.19l-13.44-10.18H228.16V156.89h86.25a7.34,7.34,0,0,0,4.4-13.19l-13.36-10.1H228.16V119.68ZM213.5,191.37H108.23V77.16l36.2-62.5H177.3l36.2,62.5Z"/><path class="cls-1" d="M168.37,63.26h-15V75a23.38,23.38,0,0,0,1.91,46.69h11.19a8.44,8.44,0,1,1,0,16.87H155.27a8.45,8.45,0,0,1-8.44-8.43h-15a23.4,23.4,0,0,0,21.54,23.25v11.76h15V153.4a23.38,23.38,0,0,0-1.91-46.69H155.27a8.44,8.44,0,0,1,0-16.88h11.19a8.45,8.45,0,0,1,8.44,8.44h15A23.39,23.39,0,0,0,168.37,75Z"/></g></g></svg>