<svg xmlns="http://www.w3.org/2000/svg" viewBox="0 0 336.75 255.66"><defs><style>.cls-1{fill:#cd9934;}</style></defs><g id="Layer_2" data-name="Layer 2"><g id="Layer_1-2" data-name="Layer 1"><path d="M74.07,112.6A22.7,22.7,0,1,0,54,87.57,22.7,22.7,0,0,0,74.07,112.6Z"/><path d="M75.12,203.37H42.42A15.81,15.81,0,0,1,26.83,190.3L15.64,127.05A7.88,7.88,0,0,0,.12,129.8l11.2,63.25a31.54,31.54,0,0,0,31.1,26.08H69.57v28.65a7.88,7.88,0,1,0,15.75,0V213.57A10.22,10.22,0,0,0,75.12,203.37Z"/><path d="M100.9,170.27H80.25l5.37-24.57,14.57,7a10.56,10.56,0,0,0,4.55,1h.47l22-1a10.5,10.5,0,0,0-.94-21l-19.34.87s-22-11.48-24.72-12.12c-3.06-.72-15.55-3.44-15.55-3.44a16.76,16.76,0,0,0-20,13l-9.17,44.05a16.37,16.37,0,0,0,16,19.7H90a4.25,4.25,0,0,1,4.25,4.25v45.4a11.77,11.77,0,1,0,23.54,0v-56.3A16.88,16.88,0,0,0,100.9,170.27Z"/><path d="M262.69,112.6a22.7,22.7,0,1,0-25-20.11A22.7,22.7,0,0,0,262.69,112.6Z"/><path d="M330.25,120.68a7.85,7.85,0,0,0-9.13,6.37L309.93,190.3a15.81,15.81,0,0,1-15.59,13.07H261.63a10.22,10.22,0,0,0-10.2,10.2v34.21a7.88,7.88,0,1,0,15.76,0V219.13h27.15a31.55,31.55,0,0,0,31.1-26.08l11.19-63.25A7.86,7.86,0,0,0,330.25,120.68Z"/><path d="M295.92,187.77a16.34,16.34,0,0,0,3.33-13.66l-9.18-44.05a16.76,16.76,0,0,0-20-13s-12.49,2.72-15.54,3.44c-2.72.64-24.73,12.12-24.73,12.12l-19.34-.87a10.5,10.5,0,0,0-.93,21l22,1H232a10.57,10.57,0,0,0,4.56-1l14.57-7,5.37,24.57H235.86A16.89,16.89,0,0,0,219,187.16v56.3a11.77,11.77,0,1,0,23.54,0v-45.4a4.25,4.25,0,0,1,4.26-4.25h36.45A16.3,16.3,0,0,0,295.92,187.77Z"/><path d="M204.24,161.64H132.52a7.88,7.88,0,1,0,0,15.75h28v70.39a7.88,7.88,0,1,0,15.75,0V177.39h28a7.88,7.88,0,0,0,0-15.75Z"/><path class="cls-1" d="M117.25,97.57l26-7.44a48.26,48.26,0,0,0,50.33,0l26,7.44a4.41,4.41,0,0,0,5.12-6.3l-12-22.7a48.61,48.61,0,1,0-88.56,0l-12,22.7A4.41,4.41,0,0,0,117.25,97.57ZM163.3,23.06V17.82a1.54,1.54,0,0,1,1.53-1.53h7.09a1.54,1.54,0,0,1,1.54,1.53V23a15.49,15.49,0,0,1,12.42,13.56,1.52,1.52,0,0,1-1.54,1.62h-7.19a1.48,1.48,0,0,1-1.46-1.13,5.32,5.32,0,0,0-5.2-4.18h-4.23a5.32,5.32,0,1,0,0,10.63h4.23a15.48,15.48,0,0,1,15.4,17c-.66,6.79-5.94,12-12.43,13.48v5.36a1.54,1.54,0,0,1-1.54,1.53h-7.09a1.54,1.54,0,0,1-1.53-1.53v-5.2a15.5,15.5,0,0,1-12.43-13.56A1.53,1.53,0,0,1,152.41,59h7.19a1.47,1.47,0,0,1,1.46,1.13,5.33,5.33,0,0,0,5.2,4.2h4.23a5.32,5.32,0,1,0,0-10.64H167c-8.07,0-15.3-5.89-16.09-13.93A15.47,15.47,0,0,1,163.3,23.06Z"/></g></g></svg>