<svg xmlns="http://www.w3.org/2000/svg" viewBox="0 0 369.65 247.84"><defs><style>.cls-1{fill:#cd9934;}</style></defs><g id="Layer_2" data-name="Layer 2"><g id="Layer_1-2" data-name="Layer 1"><path class="cls-1" d="M196.63,123.76c-5.38,7.44-7.65-3.42-13.86-3.42s-9.32,10.1-14.08,3.37c-4.3-6.16-11.7-2.45-11.7,2.32s3,12.47,6.47,19.77A142.94,142.94,0,0,0,182.3,147a153.31,153.31,0,0,0,18.11-1.09c3.68-7.93,7-16.15,7-19.72C207.45,120.8,200.73,118,196.63,123.76Z"/><path class="cls-1" d="M201.81,154.62a159.2,159.2,0,0,1-39,0c-14.24,12.11-30.07,32.3-30.07,50.72,0,28.88,22.2,42.5,49.58,42.5s49.58-13.62,49.58-42.5C231.88,186.92,216.1,166.78,201.81,154.62Zm-14.58,72.07v5.21a1.49,1.49,0,0,1-1.49,1.48h-6.88a1.49,1.49,0,0,1-1.49-1.48v-5.05a15.05,15.05,0,0,1-12.07-13.16,1.48,1.48,0,0,1,1.5-1.59h7a1.45,1.45,0,0,1,1.43,1.1,5.16,5.16,0,0,0,5,4.07h4.12a5.17,5.17,0,0,0,0-10.33h-3.44c-7.84,0-14.86-5.71-15.63-13.52a15,15,0,0,1,12.08-16.22v-5.08a1.49,1.49,0,0,1,1.49-1.49h6.88a1.49,1.49,0,0,1,1.49,1.49v5a15.06,15.06,0,0,1,12.07,13.17,1.48,1.48,0,0,1-1.5,1.57h-7a1.44,1.44,0,0,1-1.42-1.09,5.16,5.16,0,0,0-5-4.06h-4.12a5.16,5.16,0,1,0,0,10.32h4.12a15,15,0,0,1,14.94,16.53A15.2,15.2,0,0,1,187.23,226.69Z"/><path d="M301.23,58.4a25.87,25.87,0,1,0-25.87-25.87A25.88,25.88,0,0,0,301.23,58.4Z"/><path d="M367.68,96.42c-.85-1.28-21.43-31.29-66.45-31.29s-65.6,30-66.45,31.29a11.64,11.64,0,0,0,.2,13.23l20.38,28.54a11.62,11.62,0,0,0,16.23,2.71,11,11,0,0,0,1.69-1.48l-.06,8.1L266,233.83a12.93,12.93,0,0,0,11.8,14c.37,0,.73.05,1.09.05A12.93,12.93,0,0,0,291.8,236l6.91-83h5l6.91,83a12.93,12.93,0,0,0,25.77-2.16l-7.19-86.31-.06-8.1a12,12,0,0,0,1.69,1.48,11.62,11.62,0,0,0,16.23-2.71l20.38-28.54A11.64,11.64,0,0,0,367.68,96.42Zm-94.28,27-14.09-19.73a56.44,56.44,0,0,1,14.29-9.41Zm55.67,0-.21-29.17a56,56,0,0,1,14.3,9.42Z"/><path d="M95.93,88.52h60a11.63,11.63,0,0,0,0-23.25H68.37c-45,0-65.56,30-66.41,31.26a11.62,11.62,0,0,0,.2,13.22l20.37,28.53A11.62,11.62,0,0,0,38.75,141a11.35,11.35,0,0,0,1.68-1.47l0,8.08L33.2,233.85A12.92,12.92,0,0,0,59,236l6.9-82.94h5L77.79,236a12.92,12.92,0,0,0,12.85,11.85c.36,0,.72,0,1.09-.05a12.91,12.91,0,0,0,11.8-13.94l-7.18-86.26Zm-55.38,35L26.48,103.79a56.73,56.73,0,0,1,14.28-9.41Zm34.86-1.26-6.08,6.7a1.3,1.3,0,0,1-1.93,0l-6.08-6.7a1.31,1.31,0,0,1-.33-1l5-36.64H63.63a1.3,1.3,0,0,1-1.3-1.31V75.69a1.3,1.3,0,0,1,1.3-1.3h9.48a1.3,1.3,0,0,1,1.3,1.3v7.55a1.31,1.31,0,0,1-1.3,1.31H70.73l5,36.64A1.31,1.31,0,0,1,75.41,122.24Z"/><path d="M68.37,58.54A25.85,25.85,0,1,0,42.52,32.69,25.84,25.84,0,0,0,68.37,58.54Z"/><path d="M126.26,40.59h97.66L213.22,51.3a8.06,8.06,0,0,0,11.4,11.39l24.46-24.46a8.08,8.08,0,0,0,0-11.4L224.62,2.36a8.06,8.06,0,0,0-11.41,11.39l10.71,10.72H126.26a8.06,8.06,0,0,0,0,16.12Z"/></g></g></svg>