<svg xmlns="http://www.w3.org/2000/svg" viewBox="0 0 268.73 268.54"><defs><style>.cls-1{fill:#cd9934;}</style></defs><g id="Layer_2" data-name="Layer 2"><g id="Layer_1-2" data-name="Layer 1"><path d="M224.8,50a13,13,0,1,0-13-13A13,13,0,0,0,224.8,50Z"/><path d="M224.81,87.85a43.93,43.93,0,1,0-43.93-43.92A44,44,0,0,0,224.81,87.85Zm0-76.79A32.83,32.83,0,0,1,246.3,68.74v-.92a14.92,14.92,0,0,0-10-14.07,20.07,20.07,0,0,1-22.91,0,15,15,0,0,0-10.08,14.07v.88a32.83,32.83,0,0,1,21.54-57.64Z"/><path d="M43.93,50a13,13,0,1,0-13-13A13,13,0,0,0,43.93,50Z"/><path d="M43.93,87.85A43.93,43.93,0,1,0,0,43.93,44,44,0,0,0,43.93,87.85Zm0-76.79A32.83,32.83,0,0,1,65.42,68.74v-.92a14.92,14.92,0,0,0-10-14.07,20.09,20.09,0,0,1-22.92,0A15,15,0,0,0,22.4,67.82v.88A32.82,32.82,0,0,1,43.93,11.06Z"/><path d="M224.8,204.72a13,13,0,1,0,13,13A13,13,0,0,0,224.8,204.72Z"/><path d="M224.81,180.68a43.93,43.93,0,1,0,43.92,43.93A44,44,0,0,0,224.81,180.68Zm21.49,68.75v-.92a14.91,14.91,0,0,0-10-14.07,20.12,20.12,0,0,1-22.91,0,14.94,14.94,0,0,0-10.08,14.07v.88a32.87,32.87,0,1,1,43,0Z"/><path d="M43.93,204.72a13,13,0,1,0,13,13A13,13,0,0,0,43.93,204.72Z"/><path d="M43.93,180.68a43.93,43.93,0,1,0,43.93,43.93A44,44,0,0,0,43.93,180.68Zm21.49,68.75v-.92a14.91,14.91,0,0,0-10-14.07,20.13,20.13,0,0,1-22.92,0A15,15,0,0,0,22.4,248.51v.88a32.87,32.87,0,1,1,43,0Z"/><path d="M107.5,37.18a7.07,7.07,0,1,0-7.07-7.07A7.08,7.08,0,0,0,107.5,37.18Z"/><path d="M161.29,37.18a7.07,7.07,0,1,0-7.07-7.07A7.08,7.08,0,0,0,161.29,37.18Z"/><path d="M134.39,37.18a7.07,7.07,0,1,0-7.07-7.07A7.07,7.07,0,0,0,134.39,37.18Z"/><path d="M107.5,231.36a7.07,7.07,0,1,0,7.07,7.07A7.06,7.06,0,0,0,107.5,231.36Z"/><path d="M161.29,231.36a7.07,7.07,0,1,0,7.07,7.07A7.06,7.06,0,0,0,161.29,231.36Z"/><path d="M134.39,231.36a7.07,7.07,0,1,0,7.07,7.07A7.07,7.07,0,0,0,134.39,231.36Z"/><path d="M238.55,100.3a7.07,7.07,0,1,0,7.07,7.07A7.08,7.08,0,0,0,238.55,100.3Z"/><path d="M238.55,154.09a7.07,7.07,0,1,0,7.07,7.07A7.08,7.08,0,0,0,238.55,154.09Z"/><path d="M238.55,127.2a7.07,7.07,0,1,0,7.07,7.07A7.07,7.07,0,0,0,238.55,127.2Z"/><path d="M30.23,100.3a7.07,7.07,0,1,0,7.07,7.07A7.08,7.08,0,0,0,30.23,100.3Z"/><path d="M30.23,154.09a7.07,7.07,0,1,0,7.07,7.07A7.08,7.08,0,0,0,30.23,154.09Z"/><path d="M30.23,127.2a7.07,7.07,0,1,0,7.07,7.07A7.07,7.07,0,0,0,30.23,127.2Z"/><path class="cls-1" d="M134.37,194a59.69,59.69,0,1,0-59.69-59.69A59.69,59.69,0,0,0,134.37,194Zm-6.18-90.57V96.6a2.48,2.48,0,0,1,2.47-2.47h7.42a2.48,2.48,0,0,1,2.47,2.47v6.51A16.45,16.45,0,0,1,155,117.77a2.44,2.44,0,0,1-.62,1.84,2.55,2.55,0,0,1-1.87.82H145a2.41,2.41,0,0,1-2.39-1.88,4.14,4.14,0,0,0-4-3.25H132a6.71,6.71,0,0,0-6.8,5.72,6.42,6.42,0,0,0,6.37,7.06h4.83c10,0,18.52,7.42,19.45,16.89a18.66,18.66,0,0,1-15.29,20.29v6.66a2.48,2.48,0,0,1-2.47,2.48h-7.42a2.48,2.48,0,0,1-2.47-2.48v-6.51a16.37,16.37,0,0,1-14.42-14.65,2.35,2.35,0,0,1,.6-1.82,2.5,2.5,0,0,1,1.88-.84h7.5a2.38,2.38,0,0,1,2.38,1.87,4.17,4.17,0,0,0,4,3.27h6.56a6.71,6.71,0,0,0,6.81-5.73,6.41,6.41,0,0,0-6.37-7.07h-5.61a18.8,18.8,0,0,1-13.89-6.16,18.55,18.55,0,0,1-4.77-14.47C113.68,111.78,119.92,105.13,128.19,103.39Z"/></g></g></svg>