<svg xmlns="http://www.w3.org/2000/svg" viewBox="0 0 335.81 220.11"><defs><style>.cls-1{fill:#cd9934;}</style></defs><g id="Layer_2" data-name="Layer 2"><g id="Layer_1-2" data-name="Layer 1"><path d="M135.36,46.55a33.73,33.73,0,0,0,26.89-26.89h67.8a33.73,33.73,0,0,0,26.89,26.89v136.5h19.67V13.9A13.9,13.9,0,0,0,262.71,0H129.6a13.89,13.89,0,0,0-13.9,13.9V183.05h19.66Z"/><path class="cls-1" d="M147.66,127.73a48.5,48.5,0,1,0,48.49-48.49A48.55,48.55,0,0,0,147.66,127.73Zm43.14-29V92a1.84,1.84,0,0,1,1.84-1.85h7A1.84,1.84,0,0,1,201.51,92V98.6a15.07,15.07,0,0,1,13.71,13.51,1.74,1.74,0,0,1-.45,1.35,1.92,1.92,0,0,1-1.4.62h-7.12a1.81,1.81,0,0,1-1.78-1.38,4.45,4.45,0,0,0-4.34-3.5H193.9a6.86,6.86,0,0,0-7,5.89,6.48,6.48,0,0,0,1.66,5.1,6.6,6.6,0,0,0,4.89,2.18h5.33a17.33,17.33,0,0,1,12.82,5.69A17.12,17.12,0,0,1,216,141.4c-.73,7.55-6.68,13.76-14.53,15.24v6.85a1.84,1.84,0,0,1-1.84,1.85h-7a1.84,1.84,0,0,1-1.84-1.85v-6.64a15.06,15.06,0,0,1-13.71-13.51,1.74,1.74,0,0,1,.45-1.35,1.92,1.92,0,0,1,1.4-.62h7.12a1.8,1.8,0,0,1,1.77,1.38,4.46,4.46,0,0,0,4.35,3.5h6.23a6.86,6.86,0,0,0,7-5.89,6.5,6.5,0,0,0-1.66-5.1,6.61,6.61,0,0,0-4.89-2.17h-4.58c-9.23,0-17.12-6.84-18-15.58A17.26,17.26,0,0,1,190.8,98.7Z"/><path d="M208.57,50.2a12.42,12.42,0,1,0-12.42,12.41A12.42,12.42,0,0,0,208.57,50.2Z"/><path d="M47.72,118.79a6.86,6.86,0,0,0,10.51,0L88.85,82a6.87,6.87,0,0,0-5.31-11.19H68.4V5a5,5,0,0,0-5-5H42.55a5,5,0,0,0-5,5V70.76h-15A6.85,6.85,0,0,0,17.21,82Z"/><path d="M325.93,138.44H291.39v19.77h15.3a9.35,9.35,0,0,1,9.35,9.35V191a9.35,9.35,0,0,1-9.35,9.34H85.62A9.35,9.35,0,0,1,76.27,191V167.56a9.35,9.35,0,0,1,9.35-9.35h15.3V138.44h-91A9.88,9.88,0,0,0,0,148.32v61.91a9.88,9.88,0,0,0,9.89,9.88h316a9.88,9.88,0,0,0,9.88-9.88V148.32A9.88,9.88,0,0,0,325.93,138.44Z"/></g></g></svg>