<svg xmlns="http://www.w3.org/2000/svg" viewBox="0 0 277.96 268.82"><defs><style>.cls-1{fill:#cd9934;}</style></defs><g id="Layer_2" data-name="Layer 2"><g id="Layer_1-2" data-name="Layer 1"><path d="M276.44,204.15a15.36,15.36,0,0,0-13.55-8.59l-49.57-.33a31.6,31.6,0,0,1-1.12,3.46,30.08,30.08,0,0,1-31.18,19l-2-.2a312.48,312.48,0,0,1-53.57-10.06l-14-3.91a8.65,8.65,0,0,1-1.93-15.86,8.6,8.6,0,0,1,6.58-.79L130.88,191a289,289,0,0,0,48.8,9.22l3.08.29a12.93,12.93,0,0,0,13.05-18.29,13.22,13.22,0,0,0-7.37-6.73l-71.86-25.77a37.8,37.8,0,0,0-24.52-.34L6.42,180.64a9.75,9.75,0,0,0-5.29,13.71L27.9,245.29A9.75,9.75,0,0,0,40,249.89l20.78-7.72a13.71,13.71,0,0,1,10.23.26l53.22,22.87a43.29,43.29,0,0,0,32.08.84L268,225a15.2,15.2,0,0,0,8.41-20.82Z"/><path class="cls-1" d="M196.28,147.09a38.28,38.28,0,1,0,36.45-50,36.63,36.63,0,0,0-13.67,2.62c.11,1.48.23,2.85.23,4.33A51.84,51.84,0,0,1,196.28,147.09Z"/><path class="cls-1" d="M167.31,142.28A38.29,38.29,0,1,0,129,104,38.29,38.29,0,0,0,167.31,142.28Z"/><path d="M169.91,46a8.54,8.54,0,0,0,8.54-8.54V8.54a8.54,8.54,0,0,0-17.08,0V37.47A8.55,8.55,0,0,0,169.91,46Z"/><path d="M208.27,63.93a8.54,8.54,0,0,0,8.54-8.54V26.47a8.55,8.55,0,1,0-17.09,0V55.39A8.54,8.54,0,0,0,208.27,63.93Z"/><path d="M246.63,81.86a8.55,8.55,0,0,0,8.54-8.55V44.38a8.54,8.54,0,1,0-17.08,0V73.31A8.54,8.54,0,0,0,246.63,81.86Z"/></g></g></svg>