<svg xmlns="http://www.w3.org/2000/svg" viewBox="0 0 311.67 283.9"><defs><style>.cls-1{fill:#cd9934;}</style></defs><g id="Layer_2" data-name="Layer 2"><g id="Layer_1-2" data-name="Layer 1"><path d="M110.73,97.41a77.24,77.24,0,0,1,104.68-34.5L229.29,49A96.11,96.11,0,0,0,92.09,92.65a16.82,16.82,0,0,1,3.7-.33A24.15,24.15,0,0,1,110.73,97.41Z"/><path d="M248.72,96.35a77.26,77.26,0,0,1-98.27,106.73,71.5,71.5,0,0,1,3.63,21.21,96.11,96.11,0,0,0,122.06-92.65,94,94,0,0,0-13.61-49.1Z"/><path d="M239.92,131.65a58,58,0,0,0-4.34-22.16l-15.19,15.18a33.72,33.72,0,0,1,.67,7,41.08,41.08,0,1,1-41-41,34.55,34.55,0,0,1,7,.66l15.18-15.19A58,58,0,0,0,180,71.76a59.94,59.94,0,1,0,59.89,59.89Z"/><path class="cls-1" d="M311.14,30.2a7.09,7.09,0,0,0-6.54-4.36H285.84V7.07a7.07,7.07,0,0,0-12.08-5L254.38,21.45a7.09,7.09,0,0,0-2.07,5V46l-63.66,63.65A23.45,23.45,0,0,0,180,108a23.67,23.67,0,1,0,23.66,23.67A23.41,23.41,0,0,0,202,123l63.67-63.67h19.57a7,7,0,0,0,5-2.07L309.6,37.91A7.07,7.07,0,0,0,311.14,30.2Z"/><path d="M90.48,151c6.09-12.61,12.82-27.85,12.82-33.74,0-7.45-9.33-11.35-15-3.43-7.39,10.34-10.57-4.68-19.12-4.66s-12.86,13.9-19.45,4.59c-6-8.49-16.18-3.34-16.18,3.27,0,8,6.43,22.57,12.43,34.37C25.28,167.61,0,197.8,0,225.2,0,265,30.67,283.9,68.5,283.9S137,265,137,225.2C137,197.55,111.27,167.08,90.48,151ZM65.41,209.3h6.18a22,22,0,0,1,21.84,24.13c-1,9.84-8.72,17.37-18.19,19.26v8.8a1.79,1.79,0,0,1-1.8,1.79H63.55a1.8,1.8,0,0,1-1.8-1.79v-8.65a22,22,0,0,1-18.21-19.69,1.82,1.82,0,0,1,1.83-1.91h10a1.74,1.74,0,0,1,1.75,1.37,8.46,8.46,0,0,0,8.34,7.08h5.71a8.78,8.78,0,0,0,8.81-7,8.45,8.45,0,0,0-8.34-9.86h-5.2c-11.46,0-21.7-8.35-22.82-19.74a22,22,0,0,1,18.18-23.81v-8.63a1.8,1.8,0,0,1,1.8-1.8h9.89a1.79,1.79,0,0,1,1.8,1.8v8.64a22,22,0,0,1,18.22,19.68,1.82,1.82,0,0,1-1.83,1.92H81.68a1.75,1.75,0,0,1-1.75-1.37,8.46,8.46,0,0,0-8.34-7.09h-5.7c-4.21,0-8.13,2.86-8.81,7A8.46,8.46,0,0,0,65.41,209.3Z"/></g></g></svg>