<svg xmlns="http://www.w3.org/2000/svg" viewBox="0 0 207.28 265.76"><defs><style>.cls-1{fill:#cd9934;}</style></defs><g id="Layer_2" data-name="Layer 2"><g id="Layer_1-2" data-name="Layer 1"><path d="M197.76,93.89H157a9.53,9.53,0,0,0,0,19h17.79l-55,55L76,124.11a9.52,9.52,0,0,0-13.47,0L2.79,183.82a9.52,9.52,0,1,0,13.47,13.47l53-53L113,188.13a9.52,9.52,0,0,0,13.47,0l61.72-61.72v17.8a9.53,9.53,0,0,0,19.05,0V103.42A9.52,9.52,0,0,0,197.76,93.89Z"/><path class="cls-1" d="M4.82,219.64H34.32a3.47,3.47,0,0,1,3.47,3.47v39.18a3.47,3.47,0,0,1-3.47,3.47H4.82a3.48,3.48,0,0,1-3.48-3.48V223.11A3.48,3.48,0,0,1,4.82,219.64Z"/><path class="cls-1" d="M93.23,194.41v67.88a3.48,3.48,0,0,1-3.48,3.47H60.36a3.47,3.47,0,0,1-3.47-3.47V194.52a3.59,3.59,0,0,1,3.58-3.58H89.76A3.48,3.48,0,0,1,93.23,194.41Z"/><path class="cls-1" d="M204.32,175.55v86.74a3.47,3.47,0,0,1-3.47,3.47H171.34a3.47,3.47,0,0,1-3.47-3.47V175.55a3.6,3.6,0,0,1,3.59-3.59h29.28A3.6,3.6,0,0,1,204.32,175.55Z"/><path class="cls-1" d="M148.77,213.62v48.67a3.47,3.47,0,0,1-3.47,3.47H115.79a3.48,3.48,0,0,1-3.47-3.47V213.62a3.6,3.6,0,0,1,3.59-3.58H145.3A3.57,3.57,0,0,1,148.77,213.62Z"/><path d="M100.66,67.9h7.26a8.88,8.88,0,0,1,0,17.76h-9.6a6.42,6.42,0,0,1-6.11-4.47,2.83,2.83,0,0,0-2.7-1.94H76.71a3,3,0,0,0-2.88,3.45,24.75,24.75,0,0,0,20.65,20.9v11a2.9,2.9,0,0,0,2.91,2.9h12.5a2.9,2.9,0,0,0,2.91-2.9V103.49a27.19,27.19,0,0,0,22.12-30c-1.65-13.9-14.3-23.9-28.29-23.9H99.36a8.88,8.88,0,1,1,0-17.75H109a6.4,6.4,0,0,1,6.1,4.46,2.83,2.83,0,0,0,2.71,1.94h12.8a3,3,0,0,0,2.87-3.44,24.74,24.74,0,0,0-20.65-20.9v-11A2.91,2.91,0,0,0,109.89,0H97.39a2.91,2.91,0,0,0-2.91,2.91V14A27.19,27.19,0,0,0,72.36,44C74,57.91,86.67,67.9,100.66,67.9Z"/></g></g></svg>