<svg xmlns="http://www.w3.org/2000/svg" viewBox="0 0 227.16 278.46"><defs><style>.cls-1{fill:#cd9934;}</style></defs><g id="Layer_2" data-name="Layer 2"><g id="Layer_1-2" data-name="Layer 1"><path class="cls-1" d="M48.88,94.14A31.07,31.07,0,0,0,75,108.83c2.39,0,5,0,7.84,0-10.64,12.6-20.48,29.28-20.48,43.83,0,32.68,25.13,48.09,56.11,48.09s56.11-15.41,56.11-48.09c0-18.67-14.33-38.87-28.93-52.78a12.7,12.7,0,0,0,2.47-7.34,13.14,13.14,0,0,0-2.6-8,13.27,13.27,0,0,0,2.79-18.25,13.29,13.29,0,0,0,0-21.55,13.24,13.24,0,0,0,1.8-11.76,13.4,13.4,0,0,0-8.46-8.45c3.85-3.95,10.28-11.28,10.33-16.3.07-6.06-50.66-13.14-48.36-3.32a29.17,29.17,0,0,0,4.14,9.27l-15.28-2a33.71,33.71,0,0,0-26.72,8.17l-18.15,16H37.31V34a6.51,6.51,0,0,0-6.5-6.51H6.51A6.51,6.51,0,0,0,0,34v60.6a6.5,6.5,0,0,0,6.51,6.5h24.3a6.5,6.5,0,0,0,6.5-6.5V92.22H47.67ZM18.66,89.86A6.32,6.32,0,1,1,25,83.55,6.32,6.32,0,0,1,18.66,89.86Zm105.11,84.92v5.59a1.6,1.6,0,0,1-1.6,1.6h-7.39a1.6,1.6,0,0,1-1.6-1.6V175a16.18,16.18,0,0,1-13-14.14,1.6,1.6,0,0,1,1.61-1.7h7.49a1.57,1.57,0,0,1,1.53,1.18,5.55,5.55,0,0,0,5.41,4.38h4.42a5.55,5.55,0,0,0,0-11.09H117c-8.41,0-15.94-6.14-16.76-14.52a16.1,16.1,0,0,1,13-17.4V116.2a1.6,1.6,0,0,1,1.6-1.59h7.39a1.6,1.6,0,0,1,1.6,1.59v5.43a16.16,16.16,0,0,1,13,14.13,1.58,1.58,0,0,1-1.6,1.69h-7.49a1.55,1.55,0,0,1-1.53-1.17,5.53,5.53,0,0,0-5.41-4.36h-4.42a5.54,5.54,0,1,0,0,11.08h4.42a16.14,16.14,0,0,1,16,17.74C136,167.82,130.54,173.26,123.77,174.78ZM134.7,97.4H120.38a5,5,0,0,1,0-10H134.7a5,5,0,0,1,0,10ZM137.34,79H117.78a5,5,0,0,1,0-10h19.56a5,5,0,0,1,0,10ZM126.8,32h10.54a5,5,0,0,1,0,10H126.71l.18-8.57C126.91,33,126.82,32.52,126.8,32Zm-.35,23.18.09-4.73H140.4a5,5,0,0,1,0,10H125.19A13.15,13.15,0,0,0,126.45,55.21ZM37.31,44.75h11.9a4.21,4.21,0,0,0,2.79-1L71.34,26.62A25.32,25.32,0,0,1,91.4,20.49l18.09,2.37a10.42,10.42,0,0,1,9,10.46L118,55a4.94,4.94,0,0,1-4.91,4.8,4.83,4.83,0,0,1-3.54-1.51,5.11,5.11,0,0,1-1.36-3.6l.62-14.92a4.23,4.23,0,0,0-3.57-4.34L95.79,34a4.21,4.21,0,1,0-1.27,8.33l4.76.72A22.81,22.81,0,0,1,77.17,56.76a4.25,4.25,0,0,0-4.62,3.75V61a4.22,4.22,0,0,0,3.79,4.17A30.84,30.84,0,0,0,99.9,56.55a13.06,13.06,0,0,0,3.6,7.61,13.55,13.55,0,0,0,3.12,2.34,13.5,13.5,0,0,0-2.27,7.44,13.07,13.07,0,0,0,2,6.79A30.09,30.09,0,0,1,96.4,95.21c-1.72,1.4-3.53,3-5.39,4.82-5.85.35-11.34.43-15.91.39A22.72,22.72,0,0,1,56,89.68l-2.44-3.91a4.22,4.22,0,0,0-3.58-2H37.31Z"/><path d="M219.4,193.21H195.1a6.5,6.5,0,0,0-6.5,6.51v2.62l-2-.57a34.27,34.27,0,0,0-22.91,1.62l-36.86,16.19-19.63-5.32A13.27,13.27,0,0,0,97,215.61a13.69,13.69,0,0,0-2.37,1.75L70.3,201.42a15.62,15.62,0,0,0-18.49,25.12l54.87,45.13a29.76,29.76,0,0,0,30,4.66l38-15.2a44.83,44.83,0,0,1,11.5-2.89l2.41-.26v2.36a6.49,6.49,0,0,0,6.5,6.5h24.3a6.5,6.5,0,0,0,6.51-6.5V199.72A6.5,6.5,0,0,0,219.4,193.21Zm-34.14,56.67a52.48,52.48,0,0,0-13.69,3.43l-38,15.2A21.37,21.37,0,0,1,112,265.17L57.15,220a7.21,7.21,0,0,1,4.6-12.77,7.08,7.08,0,0,1,3.93,1.19l24.86,16.32a13.43,13.43,0,0,0,8.73,15l24,8.39a17.71,17.71,0,0,0,11.46,0L157,240.6a4.21,4.21,0,0,0-2.72-8L132,240.2a9.15,9.15,0,0,1-6,0l-24-8.39a5,5,0,0,1-3.14-5.88,4.93,4.93,0,0,1,6.06-3.52l21.06,5.7a4.18,4.18,0,0,0,2.79-.21L167,211.1a25.83,25.83,0,0,1,17.26-1.22l4.31,1.2V249.5Zm22,5.75a6.32,6.32,0,1,1,6.32-6.31A6.28,6.28,0,0,1,207.23,255.63Z"/><path d="M224.93,94.42,203.7,115.64a7.85,7.85,0,0,1-10.83,0L171.55,94.42a7.7,7.7,0,1,1,10.84-10.93l8.22,8.22V26.93a7.68,7.68,0,0,1,15.35,0V91.71l8.13-8.22a7.69,7.69,0,0,1,10.84,0A7.8,7.8,0,0,1,224.93,94.42Z"/></g></g></svg>