<svg xmlns="http://www.w3.org/2000/svg" viewBox="0 0 236.92 269.34"><defs><style>.cls-1{fill:#cd9934;}</style></defs><g id="Layer_2" data-name="Layer 2"><g id="Layer_1-2" data-name="Layer 1"><path class="cls-1" d="M96.13,111.29a4.36,4.36,0,0,0-4.34,4.4v28a31.55,31.55,0,0,1,4.84-.31h2.14l19.36,1V115.69a4.37,4.37,0,0,0-4.4-4.4Z"/><path class="cls-1" d="M134.91,92.43a4.37,4.37,0,0,0-4.4,4.4v48.08l26.39,1.38V96.83a4.41,4.41,0,0,0-4.4-4.4Z"/><path class="cls-1" d="M173.62,73.58a4.41,4.41,0,0,0-4.4,4.4v71a22.41,22.41,0,0,1,6.85,5.28,18.72,18.72,0,0,1,2,2.45l.75-.25,16.84-5V78a4.37,4.37,0,0,0-4.4-4.4Z"/><path class="cls-1" d="M224.2,144a25.22,25.22,0,0,1,10.12,2.13v-87a4.36,4.36,0,0,0-4.33-4.4h-17.6a4.37,4.37,0,0,0-4.4,4.4v88.6l9.18-2.7A24.14,24.14,0,0,1,224.2,144Z"/><path d="M233.6,160.64a12.78,12.78,0,0,0-12.87-3.57l-38.4,11.39a25.78,25.78,0,0,1,0,2.78,23.76,23.76,0,0,1-19.12,21.81l-2.43.48a248.19,248.19,0,0,1-42.46,4.56l-11.63.26a6.46,6.46,0,1,1-.28-12.91l11.63-.25a238.93,238.93,0,0,0,40.26-4.33l2.42-.48A10.81,10.81,0,0,0,159.18,159l-61.05-3.05A30.93,30.93,0,0,0,79,161.44l-51.53,36,52,40.48,51.24,5.74a35.08,35.08,0,0,0,25.16-6.91l76-57.55a12.61,12.61,0,0,0,1.68-18.58Z"/><path d="M1.14,228.6a5.43,5.43,0,0,0,1,7.61l41.12,32a5.43,5.43,0,0,0,7.61-1l17.08-22L18.22,206.65Z"/><path d="M97.78,73a8,8,0,0,0,3.57-.84l76.59-37.4-4.14,12A8.17,8.17,0,1,0,189.25,52l10.56-30.65A8.18,8.18,0,0,0,194.74,11L164.09.45a8.17,8.17,0,0,0-5.32,15.45l12,4.13L94.19,57.43A8.17,8.17,0,0,0,97.78,73Z"/><path d="M40.74,111h7a8.53,8.53,0,1,1,0,17.06H38.49a6.18,6.18,0,0,1-5.87-4.29A2.69,2.69,0,0,0,30,121.92H17.73A2.85,2.85,0,0,0,15,125.23a23.77,23.77,0,0,0,19.84,20.08v10.53a2.79,2.79,0,0,0,2.79,2.79h12a2.79,2.79,0,0,0,2.79-2.79V145.21a26.13,26.13,0,0,0,21.25-28.84c-1.58-13.35-13.73-23-27.17-23h-7a8.53,8.53,0,1,1,0-17.06h9.22a6.17,6.17,0,0,1,5.87,4.29,2.7,2.7,0,0,0,2.59,1.86h12.3a2.85,2.85,0,0,0,2.76-3.31A23.77,23.77,0,0,0,52.4,59.13V48.59a2.79,2.79,0,0,0-2.79-2.79h-12a2.79,2.79,0,0,0-2.79,2.79V59.24A26.12,26.12,0,0,0,13.56,88.08C15.15,101.42,27.3,111,40.74,111Z"/></g></g></svg>