<svg xmlns="http://www.w3.org/2000/svg" viewBox="0 0 305.9 243.64"><defs><style>.cls-1{fill:#cd9934;}</style></defs><g id="Layer_2" data-name="Layer 2"><g id="Layer_1-2" data-name="Layer 1"><path d="M286.52,132,244.39,80.09a42.52,42.52,0,0,0-75.49,29.27A33.63,33.63,0,0,0,137,107.14a42.48,42.48,0,0,0-75.5-27L19.4,132a65.27,65.27,0,1,0,108.43,65.1,33.84,33.84,0,0,0,49.37-3.42A65.25,65.25,0,1,0,286.52,132ZM65.29,229.17a50.83,50.83,0,1,1,50.83-50.82A50.87,50.87,0,0,1,65.29,229.17Zm85.62-39.44a17.89,17.89,0,1,1,17.9-17.89A17.91,17.91,0,0,1,150.91,189.73Zm89.7,39.44a50.83,50.83,0,1,1,50.82-50.82A50.89,50.89,0,0,1,240.61,229.17Z"/><path d="M153,39.59A9.56,9.56,0,0,0,162.53,30V9.56a9.56,9.56,0,0,0-19.12,0V30A9.56,9.56,0,0,0,153,39.59Z"/><path d="M187.57,47.91a9.55,9.55,0,0,0,12.85-4.18l9.3-18.25a9.55,9.55,0,1,0-17-8.67L183.4,35.05A9.55,9.55,0,0,0,187.57,47.91Z"/><path d="M105.48,43.59a9.56,9.56,0,0,0,17-8.68l-9.3-18.25a9.55,9.55,0,1,0-17,8.68Z"/><path class="cls-1" d="M82,177.65a19,19,0,0,0-14-6.22H62.62a5.09,5.09,0,0,1-3.77-1.68,5,5,0,0,1-1.27-3.94A5.35,5.35,0,0,1,63,161.27H69.3a2.94,2.94,0,0,1,2.86,2.31,3.35,3.35,0,0,0,3.28,2.6h7.15A3.45,3.45,0,0,0,85.14,165a3.25,3.25,0,0,0,.84-2.53,16.77,16.77,0,0,0-13.76-14.76v-5.33A3.39,3.39,0,0,0,68.84,139H61.77a3.39,3.39,0,0,0-3.39,3.39v5.5a19,19,0,0,0-14.59,20.32c.94,9.55,9.54,17,19.59,17H68A5.11,5.11,0,0,1,71.75,187,5,5,0,0,1,73,190.89a5.34,5.34,0,0,1-5.46,4.53H61.31a2.93,2.93,0,0,1-2.86-2.31,3.36,3.36,0,0,0-3.28-2.59H48a3.4,3.4,0,0,0-2.54,1.13,3.28,3.28,0,0,0-.85,2.53,16.77,16.77,0,0,0,13.76,14.76v5.34a3.39,3.39,0,0,0,3.39,3.38h7.07a3.39,3.39,0,0,0,3.38-3.38v-5.66a19.23,19.23,0,0,0,14.59-16.39A18.74,18.74,0,0,0,82,177.65Z"/><path class="cls-1" d="M257.31,177.65a19,19,0,0,0-14-6.22h-5.37a5.09,5.09,0,0,1-3.77-1.68,5,5,0,0,1-1.27-3.94,5.35,5.35,0,0,1,5.46-4.54h6.26a2.94,2.94,0,0,1,2.86,2.32,3.36,3.36,0,0,0,3.28,2.59h7.15a3.46,3.46,0,0,0,2.55-1.14,3.28,3.28,0,0,0,.84-2.53,16.77,16.77,0,0,0-13.76-14.76v-5.33a3.38,3.38,0,0,0-3.38-3.39h-7.07a3.38,3.38,0,0,0-3.38,3.39v5.5a19,19,0,0,0-14.6,20.32c.94,9.55,9.54,17,19.58,17h4.62a5.11,5.11,0,0,1,3.76,1.68,5,5,0,0,1,1.28,3.94,5.34,5.34,0,0,1-5.46,4.53h-6.26a2.92,2.92,0,0,1-2.86-2.31,3.37,3.37,0,0,0-3.28-2.59h-7.16a3.4,3.4,0,0,0-2.54,1.13,3.27,3.27,0,0,0-.85,2.54,16.78,16.78,0,0,0,13.77,14.75v5.34a3.38,3.38,0,0,0,3.38,3.38h7.07a3.38,3.38,0,0,0,3.38-3.38v-5.66a19.22,19.22,0,0,0,14.59-16.39,18.72,18.72,0,0,0-4.81-14.58Z"/></g></g></svg>