<svg xmlns="http://www.w3.org/2000/svg" viewBox="0 0 275.16 250.84"><defs><style>.cls-1{fill:#cd9934;}</style></defs><g id="Layer_2" data-name="Layer 2"><g id="Layer_1-2" data-name="Layer 1"><path class="cls-1" d="M272.87,158c-11.48-42.34-32.14-92.29-67.31-111.62l23.7-23.12A13.55,13.55,0,0,0,219.79,0H128.15a13.55,13.55,0,0,0-9.47,23.25l23.66,23.08c-24.94,13.73-42.59,42.84-54.8,73.72,13.62,4.67,23.28,12.08,23.28,22.15v91.66a64.35,64.35,0,0,0,20.94,5.63c12.49,1.13,26.58,1.94,42.21,1.94s29.72-.81,42.28-1.94C256.2,235.71,283.42,196.72,272.87,158Zm-73.3,21.51a25.45,25.45,0,0,1-18,8.43l-.59,0V199a1.51,1.51,0,0,1-1.51,1.52H168.53A1.53,1.53,0,0,1,167,199V188l-.58,0a25.61,25.61,0,0,1-24.54-23.23,1.59,1.59,0,0,1,.4-1.19,1.51,1.51,0,0,1,1.13-.49h11a1.54,1.54,0,0,1,1.5,1.29,11.65,11.65,0,0,0,11.54,9.81h13.12a11.72,11.72,0,0,0,11.6-13.25,11.93,11.93,0,0,0-12-10.16h-12c-14,0-25.5-10.57-26.31-24.06a25.58,25.58,0,0,1,24.58-27.11l.58,0V88.46a1.53,1.53,0,0,1,1.53-1.52h10.89a1.51,1.51,0,0,1,1.51,1.52V99.52l.59,0a25.66,25.66,0,0,1,24.54,23.25,1.54,1.54,0,0,1-.4,1.18,1.5,1.5,0,0,1-1.13.5h-11a1.51,1.51,0,0,1-1.49-1.3,11.67,11.67,0,0,0-11.55-9.81H167.41a11.72,11.72,0,0,0-11.6,13.26,12,12,0,0,0,12,10.17h12c14,0,25.51,10.56,26.32,24.06A25.31,25.31,0,0,1,199.57,179.5Z"/><path d="M49.76,125.63C19.38,125.63,0,135.44,0,142.2s19.38,16.57,49.76,16.57S99.51,149,99.51,142.2,80.13,125.63,49.76,125.63Z"/><path d="M0,220.18v14.09c0,6.76,19.38,16.57,49.76,16.57S99.51,241,99.51,234.27V220.18c-11.79,7.37-31.13,11.25-49.75,11.25S11.79,227.55,0,220.18Z"/><path d="M0,189.49v14.09c0,6.76,19.38,16.57,49.76,16.57s49.75-9.81,49.75-16.57V189.49c-11.79,7.37-31.13,11.25-49.75,11.25S11.79,196.86,0,189.49Z"/><path d="M0,158.8v14.09c0,6.76,19.38,16.57,49.76,16.57s49.75-9.81,49.75-16.57V158.8C87.72,166.17,68.38,170,49.76,170S11.79,166.17,0,158.8Z"/><path d="M19.53,26.49l24-24a8.9,8.9,0,0,1,12.27,0L80,26.49a8.84,8.84,0,0,1,0,12.38,8.94,8.94,0,0,1-6.14,2.56,8.76,8.76,0,0,1-6.14-2.56L58.4,29.56v70.59a8.7,8.7,0,1,1-17.39,0V29.56L31.8,38.87a8.69,8.69,0,0,1-12.27,0A8.82,8.82,0,0,1,19.53,26.49Z"/></g></g></svg>