<svg xmlns="http://www.w3.org/2000/svg" viewBox="0 0 298.86 254.15"><defs><style>.cls-1{fill:#cd9934;}</style></defs><g id="Layer_2" data-name="Layer 2"><g id="Layer_1-2" data-name="Layer 1"><path d="M187.25,140.66a19.75,19.75,0,1,0-19.75-19.75A19.77,19.77,0,0,0,187.25,140.66Z"/><path d="M260.66,139.66a18.27,18.27,0,0,1-18.45,0,122.55,122.55,0,0,1-19.75-13.13A35.72,35.72,0,1,1,187.3,85.08a33.29,33.29,0,0,1,4.56.32,61.39,61.39,0,0,1-3.15-19.31V44.71h-151A37.65,37.65,0,0,0,0,82.26V198A37.75,37.75,0,0,0,37.66,235.7h1.08l3,11.72a9.16,9.16,0,0,0,8.68,6.73h29.3a8.92,8.92,0,0,0,8.57-6.73l3-11.72h81.28l3,11.72a9.15,9.15,0,0,0,8.68,6.73h29.19a9,9,0,0,0,8.68-6.73l3-11.72h1.09A37.68,37.68,0,0,0,264,198V137.71C262.72,138.58,261.53,139.12,260.66,139.66ZM117.31,85.51h8.35a8,8,0,1,1,0,15.95h-8.35a8,8,0,1,1,0-15.95Zm0,27.35h8.35a8,8,0,1,1,0,16.06h-8.35a8,8,0,0,1,0-16.06Zm0,27.45h8.35a8,8,0,0,1,0,16.06h-8.35a8,8,0,0,1,0-16.06ZM83.12,85.51h8.47a8,8,0,1,1,0,15.95H83.12a8,8,0,0,1,0-15.95Zm0,27.35h8.47a8,8,0,1,1,0,16.06H83.12a8,8,0,0,1,0-16.06Zm0,27.45h8.47a8,8,0,0,1,0,16.06H83.12a8,8,0,0,1,0-16.06ZM49.05,85.51h8.46a8,8,0,1,1,0,15.95H49.05a8,8,0,1,1,0-15.95Zm0,27.35h8.46a8,8,0,0,1,0,16.06H49.05a8,8,0,0,1,0-16.06Zm0,27.45h8.46a8,8,0,1,1,0,16.06H49.05a8,8,0,1,1,0-16.06ZM215,195.22H49.05a8,8,0,1,1,0-16.06H215a8,8,0,1,1,0,16.06Z"/><path class="cls-1" d="M295.71,24.31C264.13,21.05,254.91,2.82,254.58,2A3.62,3.62,0,0,0,251.43,0h-.1a3.62,3.62,0,0,0-3.15,2c-.33.76-9.55,19.1-41.13,22.36a3.37,3.37,0,0,0-3.15,3.47V66.09c0,36.46,44.06,59.46,45.91,60.44a2.56,2.56,0,0,0,1.62.43,2.44,2.44,0,0,0,1.52-.43c1.85-1,45.91-24,45.91-60.44V27.78A3.37,3.37,0,0,0,295.71,24.31Zm-19.1,30.82L249.05,82.58a6.26,6.26,0,0,1-4.56,2,6.51,6.51,0,0,1-4.67-2L226.15,68.91a6.52,6.52,0,1,1,9.22-9.23l9.12,9.12,22.9-22.9a6.52,6.52,0,0,1,9.22,9.23Z"/></g></g></svg>