<svg xmlns="http://www.w3.org/2000/svg" viewBox="0 0 249.81 260.13"><defs><style>.cls-1{fill:#cd9934;}</style></defs><g id="Layer_2" data-name="Layer 2"><g id="Layer_1-2" data-name="Layer 1"><path d="M249.15,138.9,234.63,56.34a11.09,11.09,0,0,0-22,1.08L209,105.76a18.73,18.73,0,0,1,6.32,4.1A18.92,18.92,0,0,1,217,134.94l-23.73,30.32a5.72,5.72,0,0,1-9-7.06l23.73-30.32a7.51,7.51,0,0,0-.67-9.89,7.41,7.41,0,0,0-5.25-2.15,7.65,7.65,0,0,0-4.43,1.42L163,142.67a31.25,31.25,0,0,0-12.37,20.77l-6,47.47h64.61l30.59-36.84A43.21,43.21,0,0,0,249.15,138.9Z"/><rect x="135.06" y="222.32" width="81.78" height="37.81" rx="6.59"/><path d="M105.21,210.91l-6-47.47a31.33,31.33,0,0,0-12.37-20.77L52.23,117.32a7.37,7.37,0,0,0-9.68.67,7.5,7.5,0,0,0-.67,9.89L65.61,158.2a5.72,5.72,0,0,1-9,7.06L32.87,134.94a18.92,18.92,0,0,1,1.61-25.08,18.73,18.73,0,0,1,6.32-4.1L37.17,57.42a11.2,11.2,0,0,0-4.64-8.2,10.87,10.87,0,0,0-9.28-1.69,11.08,11.08,0,0,0-8.07,8.81L.66,138.9A43.19,43.19,0,0,0,10,174.07L40.6,210.91Z"/><rect x="32.98" y="222.32" width="81.78" height="37.81" rx="6.59"/><path class="cls-1" d="M124.91,0a63.46,63.46,0,1,0,63.46,63.46A63.46,63.46,0,0,0,124.91,0Zm-3,57h5.9a20.93,20.93,0,0,1,20.81,23c-.92,9.38-8.32,16.55-17.34,18.36v8.38a1.7,1.7,0,0,1-1.71,1.71h-9.43a1.71,1.71,0,0,1-1.72-1.71V98.52a20.92,20.92,0,0,1-17.35-18.76,1.72,1.72,0,0,1,1.74-1.82h9.48a1.65,1.65,0,0,1,1.67,1.3A8.07,8.07,0,0,0,122,86h5.44a8.38,8.38,0,0,0,8.4-6.69,8.05,8.05,0,0,0-7.94-9.4h-5c-10.91,0-20.68-8-21.74-18.82a20.91,20.91,0,0,1,17.32-22.69V20.16a1.72,1.72,0,0,1,1.72-1.72h9.43a1.71,1.71,0,0,1,1.71,1.72v8.23a20.93,20.93,0,0,1,17.36,18.77A1.72,1.72,0,0,1,147,49h-9.48a1.64,1.64,0,0,1-1.66-1.3,8.08,8.08,0,0,0-8-6.76h-5.44a8.37,8.37,0,0,0-8.4,6.69A8.06,8.06,0,0,0,122,57Z"/></g></g></svg>