<svg xmlns="http://www.w3.org/2000/svg" viewBox="0 0 250.01 260.96"><defs><style>.cls-1{fill:#cd9934;}</style></defs><g id="Layer_2" data-name="Layer 2"><g id="Layer_1-2" data-name="Layer 1"><path d="M238.76,146.54h-7.13C228,133,220.31,120.68,209.88,110.46l17.63-26.62a4.28,4.28,0,0,0-3.09-6.65c-9.74-1.51-29.7-2.06-52.47,10.22-.21.27-.76.27-1,.55a106.63,106.63,0,0,0-21.2-4.26,64.62,64.62,0,0,1-80.94,25.66A80.85,80.85,0,0,0,47.58,141c-2.12-.83-4.39-1.72-6.65-2.75a38,38,0,0,0,2.26-15.57,15.57,15.57,0,0,0-13.58-14.33,13.4,13.4,0,0,0-14.54,9.25,16.68,16.68,0,0,0,1.3,13.86c2.33,4.25,6.45,7.89,11.11,10.91a10.48,10.48,0,0,1-4.66,3.7c-5.22,1.72-10.7-5.83-13.52-10.49a5,5,0,0,0-6.86-1.72,5,5,0,0,0-1.71,6.86c7.34,12.21,14.61,15.64,20.37,15.64a15.21,15.21,0,0,0,4.8-.82c4.12-1.31,7.69-4.4,10.43-8.3,3.09,1.37,6.11,2.54,8.85,3.5a75,75,0,0,0-1.65,14.54c0,26.61,14.82,50.35,37.6,65.23L78.59,253a7.06,7.06,0,0,0,7.13,8h20.72a7.25,7.25,0,0,0,7.2-6.17l1.3-10.5a106.34,106.34,0,0,0,48.57,0l1.3,10.5A7.18,7.18,0,0,0,172,261h20.78a7.17,7.17,0,0,0,7.14-8l-2.81-22.5c14.81-9.74,26.34-23.32,32.51-38.62h9.67A10.83,10.83,0,0,0,250,181.11v-23.8C249.46,151.41,244.59,146.54,238.76,146.54ZM32,133.37a21.14,21.14,0,0,1-6.93-6.79,7,7,0,0,1-.55-5.83,3.33,3.33,0,0,1,3.3-2.54,1.82,1.82,0,0,1,.61.07,5.64,5.64,0,0,1,4.8,5.28A25.61,25.61,0,0,1,32,133.37ZM199.87,148.6a9.95,9.95,0,1,1,9.94-9.95C210.16,144.35,205.49,148.6,199.87,148.6Z"/><path class="cls-1" d="M94.66,100.33A50.17,50.17,0,1,0,44.49,50.17,50.16,50.16,0,0,0,94.66,100.33ZM89.47,24.22V18.51a2.08,2.08,0,0,1,2.08-2.08h6.23a2.08,2.08,0,0,1,2.07,2.08V24A13.82,13.82,0,0,1,112,36.3a2,2,0,0,1-.52,1.55,2.17,2.17,0,0,1-1.57.69h-6.3a2,2,0,0,1-2-1.59,3.48,3.48,0,0,0-3.39-2.73H92.67A5.65,5.65,0,0,0,87,39,5.38,5.38,0,0,0,92.3,45h4.06c8.39,0,15.57,6.24,16.35,14.2a15.69,15.69,0,0,1-12.86,17v5.6a2.08,2.08,0,0,1-2.07,2.09H91.55a2.09,2.09,0,0,1-2.08-2.09V76.34A13.77,13.77,0,0,1,77.35,64a2,2,0,0,1,.5-1.54,2.17,2.17,0,0,1,1.58-.7h6.31a2,2,0,0,1,2,1.58,3.5,3.5,0,0,0,3.4,2.74h5.51a5.64,5.64,0,0,0,5.72-4.81A5.39,5.39,0,0,0,97,55.35H92.3a15.77,15.77,0,0,1-11.67-5.18,15.54,15.54,0,0,1-4-12.15A16,16,0,0,1,89.47,24.22Z"/></g></g></svg>