<svg xmlns="http://www.w3.org/2000/svg" viewBox="0 0 234.01 232.02"><defs><style>.cls-1{fill:#cd9934;}</style></defs><g id="Layer_2" data-name="Layer 2"><g id="Layer_1-2" data-name="Layer 1"><path d="M155.6,158.3V131.05a27.88,27.88,0,0,1,27.88-27.88h36.41v-20a20.33,20.33,0,0,0-20.33-20.33V51.34A26.39,26.39,0,0,0,173.25,25H143.1L127,2.58a6.17,6.17,0,0,0-8.62-1.42L85.09,25H26.3A26.26,26.26,0,0,0,.07,50c0,1-.07,1.62-.07,1.7V208.16A23.86,23.86,0,0,0,23.86,232H196a23.87,23.87,0,0,0,23.87-23.87v-22H183.48A27.89,27.89,0,0,1,155.6,158.3ZM173.25,39.76a11.59,11.59,0,0,1,11.58,11.58V62.91H170.28L153.67,39.76Zm-21.1,23.15H57.58L120,18.11ZM26.3,39.76H64.57L32.32,62.91h-6a11.58,11.58,0,0,1,0-23.15Z"/><path class="cls-1" d="M228.05,113.69H183.48a17.35,17.35,0,0,0-17.36,17.36V158.3a17.34,17.34,0,0,0,17.36,17.36h44.57a6,6,0,0,0,6-5.95V119.65A6,6,0,0,0,228.05,113.69ZM192.8,157.38a12.7,12.7,0,1,1,12.69-12.69A12.7,12.7,0,0,1,192.8,157.38Z"/></g></g></svg>