<svg xmlns="http://www.w3.org/2000/svg" viewBox="0 0 319.5 240.95"><defs><style>.cls-1{fill:#cd9934;}</style></defs><g id="Layer_2" data-name="Layer 2"><g id="Layer_1-2" data-name="Layer 1"><path d="M259.55,201.25H247.67V168.59a5.51,5.51,0,0,0-5.5-5.51H228.9a5.51,5.51,0,0,0-5.5,5.51v32.66H211.52a5.38,5.38,0,0,0-4.14,8.81l24,28.94a5.36,5.36,0,0,0,8.27,0l24-28.94A5.38,5.38,0,0,0,259.55,201.25Z"/><path d="M183.77,201.25H171.88V168.59a5.51,5.51,0,0,0-5.5-5.51H153.12a5.51,5.51,0,0,0-5.51,5.51v32.66H135.73a5.38,5.38,0,0,0-4.14,8.81l24,28.94a5.36,5.36,0,0,0,8.27,0l24-28.94A5.37,5.37,0,0,0,183.77,201.25Z"/><path d="M108,201.25H96.1V168.59a5.51,5.51,0,0,0-5.51-5.51H77.33a5.51,5.51,0,0,0-5.51,5.51v32.66H59.94a5.38,5.38,0,0,0-4.14,8.81l24,28.94a5.37,5.37,0,0,0,8.28,0l24-28.94A5.38,5.38,0,0,0,108,201.25Z"/><path class="cls-1" d="M251.34,107.27a28.59,28.59,0,0,0-22.79,22.79H91a28.59,28.59,0,0,0-22.79-22.79V50.49H51.51v84.45a11.77,11.77,0,0,0,11.78,11.78H256.22A11.77,11.77,0,0,0,268,134.94V50.49H251.34Z"/><path class="cls-1" d="M200.88,78.54a40.91,40.91,0,0,0-11.11-28.05h-60a41.12,41.12,0,1,0,71.14,28.05Z"/><path d="M311.12,0H8.38A8.38,8.38,0,0,0,0,8.38V89.56a8.38,8.38,0,0,0,8.38,8.38h29.3V81.18H16.76V35.91h286V81.18H281.81V97.94h29.31a8.38,8.38,0,0,0,8.38-8.38V8.38A8.38,8.38,0,0,0,311.12,0Z"/><path class="cls-1" d="M93.91,90.1A11.53,11.53,0,1,0,82.38,78.57,11.54,11.54,0,0,0,93.91,90.1Z"/><path class="cls-1" d="M237.11,78.57A11.53,11.53,0,1,0,225.58,90.1,11.53,11.53,0,0,0,237.11,78.57Z"/></g></g></svg>